<?xml version="1.0" encoding="iso-8859-1"?>
<!-- Uploaded to: SVG Repo, www.svgrepo.com, Generator: SVG Repo Mixer Tools -->
<svg height="800px" width="800px" version="1.1" id="Layer_1" xmlns="http://www.w3.org/2000/svg" xmlns:xlink="http://www.w3.org/1999/xlink" 
	 viewBox="0 0 512 512" xml:space="preserve">
<polygon style="fill:#FEDC3D;" points="111.492,186.222 0,348.835 512,348.835 512,0 "/>
<polygon style="fill:#DFC136;" points="320.006,174.418 179.009,95.648 179.009,186.222 256,266.319 332.991,186.222 "/>
<polygon style="fill:#FFE777;" points="179.009,186.222 0,348.835 0,0 179.009,96.2 "/>
<polygon style="fill:#FEDC3D;" points="192.006,174.418 179.009,186.222 0,0 "/>
<polygon style="fill:#FFE777;" points="478.242,35.12 478.242,318.171 332.991,186.222 "/>
<polygon style="fill:#FFF1B1;" points="0,0 256,232.561 512,0 "/>
<polygon style="fill:#737373;" points="512,258.813 512,512 478.242,512 421.978,385.407 478.242,258.813 "/>
<polygon style="fill:#969696;" points="478.242,258.813 478.242,512 0,512 0,258.813 99.103,258.813 123.78,348.835 388.22,348.835 
	412.908,258.813 "/>
<g>
	<circle style="fill:#737373;" cx="289.758" cy="430.418" r="8.44"/>
	<circle style="fill:#737373;" cx="256" cy="430.418" r="8.44"/>
	<circle style="fill:#737373;" cx="222.242" cy="430.418" r="8.44"/>
</g>
</svg>